<?xml version="1.0" encoding="utf-8"?>
<!-- Generator: Adobe Illustrator 24.1.2, SVG Export Plug-In . SVG Version: 6.00 Build 0)  -->
<svg version="1.1" id="Слой_1" xmlns="http://www.w3.org/2000/svg" xmlns:xlink="http://www.w3.org/1999/xlink" x="0px" y="0px"
	 viewBox="0 0 240 80" enable-background="new 0 0 240 80" xml:space="preserve">
<g enable-background="new    ">
	<path fill="none" stroke="#AFD7CB" stroke-width="2" stroke-miterlimit="10" d="M67.8,58.2H57.5h-0.6c-0.6,0-1-0.2-1.3-0.5
		s-0.4-0.7-0.4-1.3c0-0.9,0.3-1.5,0.9-1.8c0.5-0.2,0.8-0.4,0.9-0.5c0.1-0.1,0.2-0.2,0.3-0.4c0.2-0.4,0.3-0.9,0.3-1.7V18.6
		c0-0.8-0.1-1.3-0.3-1.7c-0.1-0.2-0.2-0.3-0.3-0.4c-0.1-0.1-0.4-0.2-0.9-0.5c-0.6-0.3-0.9-0.9-0.9-1.8c0-0.6,0.1-1,0.4-1.3
		s0.7-0.5,1.3-0.5h0.6h10.3h0.6c1.1,0,1.6,0.6,1.6,1.7c0,0.9-0.3,1.5-0.9,1.8l-0.7,0.3c-0.4,0.2-0.7,1-0.7,2.2v33.5
		c0,1.2,0.2,2,0.7,2.2l0.7,0.3c0.6,0.3,0.9,0.9,0.9,1.8c0,1.2-0.5,1.7-1.6,1.7H67.8z M69.7,33.2h3.8V18.6c0-1.2-0.2-2-0.7-2.2
		l-0.7-0.3c-0.6-0.3-0.9-0.9-0.9-1.8c0-1.2,0.6-1.7,1.7-1.7h0.6h10.3h0.6c1.2,0,1.7,0.6,1.7,1.7c0,0.9-0.3,1.5-0.9,1.8
		c-0.5,0.2-0.8,0.4-0.9,0.5s-0.2,0.2-0.3,0.4c-0.2,0.4-0.3,0.9-0.3,1.7v33.3c0,1.2,0.2,2,0.7,2.2l0.7,0.4c0.6,0.3,0.9,0.9,0.9,1.8
		c0,1.2-0.6,1.8-1.7,1.8h-0.6H73.5h-0.6c-1.1,0-1.6-0.6-1.6-1.8c0-0.9,0.3-1.5,0.9-1.8l0.7-0.4c0.4-0.2,0.7-0.9,0.7-2.2V36.5h-3.8
		V33.2z"/>
	<path fill="none" stroke="#AFD7CB" stroke-width="2" stroke-miterlimit="10" d="M102.5,15.2c-0.8,0.4-1.3,0.9-1.7,1.6
		c-0.3,0.7-0.5,1.7-0.5,3v29.9c0,2,0.2,3.3,0.6,4.1c0.3,0.7,0.8,1.1,1.6,1.4v3.7c-3.4-0.4-6.3-2.3-8.6-5.6c-3-4.3-4.5-10.3-4.5-18.1
		c0-3.9,0.4-7.4,1.2-10.5c0.8-3.1,2-5.8,3.5-8c1.2-1.7,2.5-2.9,3.8-3.8c1.4-0.9,2.9-1.4,4.5-1.5V15.2z M104.4,15.2v-3.6
		c1.7,0.1,3.2,0.6,4.6,1.5c1.4,0.9,2.7,2.1,3.8,3.8c3.1,4.4,4.7,10.6,4.7,18.5c0,7.7-1.5,13.8-4.5,18.1c-2.3,3.3-5.2,5.2-8.6,5.6
		v-3.7c0.4-0.1,0.7-0.3,0.9-0.5s0.4-0.5,0.6-0.9c0.4-0.9,0.6-2.3,0.6-4.1V19.9c0-1.2-0.1-2.1-0.4-2.8c-0.2-0.5-0.4-0.8-0.7-1.1
		C105.2,15.7,104.8,15.5,104.4,15.2z"/>
	<path fill="none" stroke="#AFD7CB" stroke-width="2" stroke-miterlimit="10" d="M132.4,12.5l4.5,18.7l2-10.1v11.1l-5.3,25.9h-1.2
		l-9-38.5c-0.3-1.3-0.6-2.2-1-2.6c-0.2-0.3-0.5-0.5-1-0.6c-1-0.3-1.5-1-1.5-2.1c0-0.6,0.1-1,0.4-1.4c0.3-0.3,0.7-0.5,1.2-0.5H132.4z
		 M123.5,27.9l2.4,10.1v10.1c0,1,0,1.8,0.1,2.2c0.1,0.4,0.2,0.9,0.4,1.5c0.3,1,0.8,1.7,1.3,2.2l0.9,0.8c0.6,0.5,0.9,1.1,0.9,1.7
		c0,1.1-0.6,1.7-1.7,1.7h-5.8c-1.2,0-1.7-0.6-1.7-1.7c0-0.4,0-0.6,0.1-0.8c0.1-0.2,0.3-0.4,0.6-0.7c1.7-1.3,2.6-3.7,2.6-7V27.9z
		 M140.9,12.5h10.2h0.6c1.2,0,1.7,0.6,1.7,1.7c0,0.9-0.3,1.5-0.9,1.8c-0.5,0.2-0.8,0.4-0.9,0.5s-0.2,0.2-0.3,0.4
		c-0.2,0.4-0.3,0.9-0.3,1.7v33.5c0,0.8,0.1,1.3,0.3,1.7c0.1,0.2,0.2,0.3,0.3,0.4c0.1,0.1,0.4,0.2,0.9,0.5c0.6,0.3,0.9,0.9,0.9,1.8
		c0,1.2-0.6,1.7-1.7,1.7h-0.6h-10.3h-0.8c-0.7,0-1.2-0.2-1.5-0.5s-0.5-0.8-0.5-1.4c0-1,0.4-1.6,1.1-1.8c0.6-0.2,1-0.4,1.1-0.4
		s0.2-0.2,0.3-0.4c0.2-0.4,0.3-1,0.3-1.9V12.5z"/>
	<path fill="none" stroke="#AFD7CB" stroke-width="2" stroke-miterlimit="10" d="M169.9,12.5v45.6h-10.3H159c-0.6,0-1-0.2-1.3-0.5
		s-0.5-0.7-0.5-1.3c0-0.9,0.3-1.5,0.9-1.8c0.5-0.2,0.8-0.4,0.9-0.5c0.1-0.1,0.2-0.2,0.3-0.4c0.2-0.4,0.3-0.9,0.3-1.7V18.6
		c0-0.8-0.1-1.3-0.3-1.7c-0.1-0.2-0.2-0.3-0.3-0.4c-0.1-0.1-0.4-0.2-0.9-0.5c-0.6-0.3-0.9-0.9-0.9-1.8c0-0.6,0.2-1,0.5-1.3
		s0.7-0.5,1.3-0.5h0.6H169.9z M171.9,36.9V33c0.9-0.6,1.6-1.3,2-2s0.7-1.7,0.9-2.9c0.1-0.8,0.3-1.4,0.5-1.8c0.2-0.3,0.5-0.5,0.9-0.5
		c0.5,0,0.8,0.3,1,0.8c0.1,0.3,0.2,0.9,0.2,2v12.7c0,1-0.1,1.8-0.2,2.2s-0.5,0.6-0.9,0.6c-0.4,0-0.6-0.2-0.8-0.5
		c-0.2-0.3-0.4-0.8-0.5-1.6c-0.3-1.5-0.6-2.7-1.1-3.5S172.6,37.1,171.9,36.9z M172,12.5h9.3v11.8c0,0.7-0.1,1.2-0.3,1.5
		c-0.2,0.3-0.5,0.5-0.9,0.5c-0.3,0-0.6-0.1-0.7-0.3c-0.2-0.2-0.3-0.6-0.4-1.2c-0.6-2.6-1.4-4.6-2.6-5.9c-1.1-1.4-2.6-2.2-4.4-2.4
		V12.5z M172,58.2v-3.6c1-0.2,1.8-0.5,2.5-0.9c0.7-0.4,1.3-1,2-1.8c0.7-0.8,1.2-1.7,1.6-2.6c0.4-0.9,0.8-2,1.1-3.5
		c0.2-0.7,0.3-1.2,0.5-1.5c0.2-0.3,0.4-0.4,0.8-0.4c0.4,0,0.7,0.2,0.9,0.6c0.2,0.4,0.3,1,0.3,1.9v11.8H172z"/>
</g>
<g>
</g>
<g>
</g>
<g>
</g>
<g>
</g>
<g>
</g>
<g>
</g>
<g>
</g>
<g>
</g>
<g>
</g>
<g>
</g>
<g>
</g>
<g>
</g>
<g>
</g>
<g>
</g>
<g>
</g>
</svg>
