<?xml version="1.0" encoding="utf-8"?>
<!-- Generator: Adobe Illustrator 24.1.2, SVG Export Plug-In . SVG Version: 6.00 Build 0)  -->
<svg version="1.1" id="Слой_1" xmlns="http://www.w3.org/2000/svg" xmlns:xlink="http://www.w3.org/1999/xlink" x="0px" y="0px"
	 viewBox="0 0 240 80" enable-background="new 0 0 240 80" xml:space="preserve">
<g enable-background="new    ">
	<path fill="none" stroke="#AFD7CB" stroke-width="2" stroke-miterlimit="10" d="M54,21.3l1.2,6.9l-4.1,21.6
		c-0.1,0.6-0.2,1.2-0.2,1.7c0,1.4,0.5,2.4,1.4,3l0.8,0.5c0.5,0.3,0.8,0.9,0.8,1.7c0,1.1-0.6,1.7-1.7,1.7h-5.9c-0.6,0-1-0.2-1.3-0.5
		c-0.3-0.3-0.5-0.8-0.5-1.4c0-0.6,0.3-1.2,1-1.6c0.6-0.4,1.1-0.8,1.4-1.1c0.3-0.3,0.6-0.8,0.9-1.3c0.4-0.9,0.8-2.1,1.1-3.6L54,21.3z
		 M55.6,12.9h9.3l6.4,39.3c0.1,0.7,0.3,1.3,0.4,1.8c0.1,0.4,0.4,0.8,0.9,1c0.4,0.2,0.7,0.5,0.8,0.7s0.2,0.6,0.2,1
		c0,1.2-0.6,1.7-1.8,1.7H60.4c-0.5,0-0.8-0.2-1.1-0.5s-0.4-0.8-0.4-1.3c0-0.4,0.1-0.8,0.2-1c0.1-0.2,0.4-0.5,0.8-0.8
		c0.3-0.2,0.5-0.5,0.6-0.7s0.2-0.6,0.2-1c0-0.4,0-0.7-0.1-1l-0.7-4.8h-6.4l0.6-4h5.2L55,16.1L55.6,12.9z"/>
	<path fill="none" stroke="#AFD7CB" stroke-width="2" stroke-miterlimit="10" d="M88.2,12.9v45.6H77.9h-0.6c-0.6,0-1-0.2-1.3-0.5
		s-0.5-0.7-0.5-1.3c0-0.9,0.3-1.5,0.9-1.8c0.5-0.2,0.8-0.4,0.9-0.5c0.1-0.1,0.2-0.2,0.3-0.4c0.2-0.4,0.3-0.9,0.3-1.7V18.9
		c0-0.8-0.1-1.3-0.3-1.7c-0.1-0.2-0.2-0.3-0.3-0.4s-0.4-0.2-0.9-0.5c-0.6-0.3-0.9-0.9-0.9-1.8c0-0.6,0.2-1,0.5-1.3s0.7-0.5,1.3-0.5
		h0.6H88.2z M95.4,34.8c1.4,0.4,2.4,0.8,3.2,1.2c0.7,0.4,1.4,0.9,2,1.4c1,1,1.8,2.2,2.4,3.8c0.5,1.6,0.8,3.3,0.8,5.3
		c0,3.8-1,6.8-2.9,8.9c-1,1.1-2.1,1.9-3.3,2.4c-1.2,0.5-2.8,0.7-4.7,0.7h-2.7V55c0.6-0.1,1.1-0.2,1.5-0.4c0.4-0.2,0.7-0.5,0.9-1
		c0.5-0.8,0.8-2.1,0.8-3.8v-7.6c0-1.1-0.1-2-0.2-2.6c-0.1-0.6-0.4-1.2-0.7-1.7c-0.3-0.4-0.5-0.7-0.9-0.9c-0.3-0.2-0.7-0.3-1.3-0.4
		v-3.5c0.6-0.1,1-0.2,1.3-0.3c0.3-0.2,0.6-0.4,0.9-0.8c0.2-0.3,0.5-0.8,0.6-1.3c0.2-0.5,0.3-1,0.3-1.5v-1.8v-5.8
		c0-0.6-0.1-1.2-0.2-1.9c-0.1-0.7-0.3-1.2-0.5-1.6c-0.3-0.5-0.6-0.9-1-1.1c-0.4-0.2-0.9-0.4-1.5-0.5v-3.7h2.7c3.5,0,6.2,1,8,3.1
		c0.8,1,1.5,2.1,1.9,3.5c0.4,1.4,0.7,2.8,0.7,4.4c0,1.6-0.2,3-0.7,4.4c-0.5,1.4-1.1,2.5-1.9,3.4c-0.6,0.7-1.3,1.3-2.1,1.7
		C97.9,33.9,96.8,34.4,95.4,34.8z"/>
	<path fill="none" stroke="#AFD7CB" stroke-width="2" stroke-miterlimit="10" d="M119.4,15.6c-0.8,0.4-1.3,0.9-1.7,1.6
		c-0.3,0.7-0.5,1.7-0.5,3v29.9c0,2,0.2,3.3,0.6,4.1c0.3,0.7,0.8,1.1,1.6,1.4v3.7c-3.4-0.4-6.3-2.3-8.6-5.6c-3-4.3-4.5-10.3-4.5-18.1
		c0-3.9,0.4-7.4,1.2-10.5c0.8-3.1,2-5.8,3.5-8c1.2-1.7,2.5-2.9,3.8-3.8c1.4-0.9,2.9-1.4,4.5-1.5V15.6z M121.3,15.6v-3.6
		c1.7,0.1,3.2,0.6,4.6,1.5c1.4,0.9,2.7,2.1,3.8,3.8c3.1,4.4,4.7,10.6,4.7,18.5c0,7.7-1.5,13.8-4.5,18.1c-2.3,3.3-5.2,5.2-8.6,5.6
		v-3.7c0.4-0.1,0.7-0.3,0.9-0.5c0.2-0.2,0.4-0.5,0.6-0.9c0.4-0.9,0.6-2.3,0.6-4.1V20.2c0-1.2-0.1-2.1-0.4-2.8
		c-0.2-0.5-0.4-0.8-0.7-1.1C122.1,16.1,121.7,15.8,121.3,15.6z"/>
	<path fill="none" stroke="#AFD7CB" stroke-width="2" stroke-miterlimit="10" d="M139.2,45.1V18.9c0-0.8-0.1-1.3-0.3-1.7
		c-0.1-0.2-0.2-0.3-0.3-0.4c-0.1-0.1-0.4-0.2-0.9-0.5c-0.6-0.3-0.9-0.9-0.9-1.8c0-0.6,0.1-1,0.4-1.3s0.7-0.5,1.3-0.5h0.6h10.3h0.6
		l0.8,0.1c0.3,0.1,0.5,0.3,0.6,0.6c0.2,0.3,0.3,0.6,0.3,1c0,0.9-0.3,1.5-0.9,1.8c-0.5,0.2-0.8,0.4-0.9,0.5c-0.1,0.1-0.2,0.2-0.3,0.4
		c-0.2,0.4-0.3,0.9-0.3,1.7v28c0,1.9,0,3.2,0.1,4c0.1,0.7,0.2,1.4,0.4,2c0.2,0.6,0.4,1,0.7,1.2c0.2,0.2,0.7,0.5,1.4,0.8v4.4h-0.5
		c-2,0-3.7-0.3-5-0.8c-1.6-0.6-2.9-1.5-4.1-2.7c-1.2-1.2-2-2.5-2.5-4C139.4,50.4,139.2,48.1,139.2,45.1z M154.1,59.4V55
		c1.5-0.3,2.8-1.2,3.9-2.7c1.2-1.8,1.8-4.3,1.8-7.6V22.9c0-3.1-0.8-5.2-2.4-6.4c-0.5-0.4-0.8-0.7-0.9-0.9c-0.1-0.3-0.2-0.6-0.2-1.1
		c0-0.6,0.1-1,0.4-1.2c0.3-0.2,0.8-0.4,1.4-0.4h5.7c0.5,0,0.8,0,1,0.1c0.2,0,0.3,0.1,0.5,0.3c0.4,0.3,0.6,0.8,0.6,1.4
		c0,0.5-0.1,0.9-0.4,1.2c-0.1,0.1-0.4,0.4-1,0.9c-0.7,0.5-1.2,1.4-1.6,2.5s-0.6,2.4-0.6,3.8v21.8c0,3.7-0.6,6.8-1.7,9.2
		c-0.8,1.8-2,3.2-3.6,4.3C156.1,58.7,155.2,59.1,154.1,59.4z"/>
	<path fill="none" stroke="#AFD7CB" stroke-width="2" stroke-miterlimit="10" d="M168.2,12.9h6.1v4c-0.7,0.6-1.3,1.4-1.7,2.3
		c-0.7,1.5-1.1,3.3-1.3,5.4l-0.2,2c-0.1,0.6-0.2,1.2-0.5,1.5c-0.3,0.4-0.6,0.6-1,0.6c-0.4,0-0.7-0.2-1-0.6c-0.3-0.4-0.4-0.9-0.4-1.6
		V12.9z M186.4,12.9v39.3c0,0.9,0.1,1.5,0.3,1.9c0.1,0.2,0.2,0.4,0.3,0.4s0.5,0.2,1.1,0.4c0.7,0.2,1.1,0.9,1.1,1.8
		c0,0.6-0.2,1-0.6,1.4c-0.3,0.3-0.8,0.4-1.5,0.4h-0.8h-10.3h-0.8c-0.7,0-1.2-0.2-1.5-0.5c-0.3-0.3-0.5-0.8-0.5-1.4
		c0-1,0.4-1.6,1.1-1.8c0.6-0.2,1-0.4,1.1-0.4s0.2-0.2,0.3-0.4c0.2-0.4,0.3-1,0.3-1.9V12.9H186.4z M194.4,12.9v13.7
		c0,0.6-0.1,1.2-0.4,1.6c-0.3,0.4-0.6,0.6-1,0.6c-0.4,0-0.7-0.2-1-0.6c-0.3-0.4-0.4-0.9-0.5-1.5l-0.2-2c-0.2-2.1-0.7-3.9-1.3-5.4
		c-0.4-0.9-1-1.7-1.7-2.3v-4H194.4z"/>
</g>
<g>
</g>
<g>
</g>
<g>
</g>
<g>
</g>
<g>
</g>
<g>
</g>
<g>
</g>
<g>
</g>
<g>
</g>
<g>
</g>
<g>
</g>
<g>
</g>
<g>
</g>
<g>
</g>
<g>
</g>
</svg>
