<?xml version="1.0" encoding="utf-8"?>
<!-- Generator: Adobe Illustrator 24.1.2, SVG Export Plug-In . SVG Version: 6.00 Build 0)  -->
<svg version="1.1" id="Слой_1" xmlns="http://www.w3.org/2000/svg" xmlns:xlink="http://www.w3.org/1999/xlink" x="0px" y="0px"
	 viewBox="0 0 240 80" enable-background="new 0 0 240 80" xml:space="preserve">
<g id="Слой_2_1_">
	<g id="Слой_1-2">
		<g enable-background="new    ">
			<path fill="none" stroke="#AFD7CB" stroke-width="2" stroke-miterlimit="10" d="M14.4,15.9v39.3c0,0.9,0.1,1.5,0.3,1.9
				c0.1,0.2,0.2,0.4,0.3,0.4c0.1,0.1,0.5,0.2,1.1,0.4c0.7,0.2,1.1,0.9,1.1,1.8c0,0.6-0.2,1-0.6,1.4c-0.2,0.3-0.7,0.4-1.4,0.4h-0.8
				H4.1H3.5c-0.6,0-1-0.2-1.3-0.5s-0.4-0.7-0.4-1.3c0-0.9,0.3-1.5,0.9-1.8c0.5-0.2,0.8-0.4,0.9-0.5s0.2-0.2,0.3-0.4
				c0.2-0.4,0.3-0.9,0.3-1.7V22c0-0.8-0.1-1.3-0.3-1.7c-0.1-0.2-0.2-0.3-0.3-0.4s-0.4-0.2-0.9-0.4c-0.6-0.3-0.9-0.9-0.9-1.8
				c0-0.6,0.1-1,0.4-1.3c0.3-0.3,0.7-0.5,1.3-0.5h0.6H14.4z M16.3,40.3v-3.9c0.9-0.6,1.6-1.3,2-2s0.7-1.7,0.9-3
				c0.1-0.8,0.3-1.4,0.5-1.8c0.2-0.3,0.5-0.5,0.9-0.5c0.5,0,0.8,0.3,1,0.8c0.1,0.3,0.2,0.9,0.2,2v12.7c0,1-0.1,1.8-0.2,2.2
				c-0.2,0.4-0.5,0.6-0.9,0.6s-0.6-0.2-0.8-0.5c-0.2-0.3-0.4-0.8-0.5-1.6c-0.3-1.5-0.7-2.7-1.1-3.5C17.7,41.1,17.1,40.5,16.3,40.3z
				 M16.4,15.9h9.3v11.7c0,0.8-0.1,1.3-0.3,1.6c-0.2,0.3-0.5,0.5-0.9,0.5c-0.3,0-0.5-0.1-0.7-0.4c-0.2-0.2-0.3-0.6-0.4-1.2
				c-0.2-1.1-0.5-2.1-0.9-3s-0.8-1.7-1.2-2.3c-0.6-0.9-1.3-1.6-2.1-2c-0.8-0.5-1.7-0.8-2.7-1L16.4,15.9L16.4,15.9z"/>
			<path fill="none" stroke="#AFD7CB" stroke-width="2" stroke-miterlimit="10" d="M41.1,15.9v39.3c0,0.9,0.1,1.5,0.3,1.9
				c0.1,0.2,0.2,0.4,0.3,0.4c0.1,0.1,0.5,0.2,1.1,0.4c0.7,0.2,1.1,0.9,1.1,1.8c0,0.6-0.2,1-0.6,1.4c-0.2,0.3-0.7,0.4-1.4,0.4h-0.8
				H30.9h-0.6c-0.6,0-1-0.2-1.3-0.5s-0.4-0.7-0.4-1.3c0-0.9,0.3-1.5,0.9-1.8c0.5-0.2,0.8-0.4,0.9-0.5s0.2-0.2,0.3-0.4
				c0.2-0.4,0.3-0.9,0.3-1.7V22c0-0.8-0.1-1.3-0.3-1.7c-0.1-0.2-0.2-0.3-0.3-0.4s-0.4-0.2-0.9-0.5c-0.6-0.3-0.9-0.9-0.9-1.8
				c0-0.6,0.1-1,0.4-1.3c0.3-0.3,0.7-0.5,1.3-0.5h0.6h10.2V15.9z M48.2,39.2c1.4,0.3,2.5,0.7,3.3,1c0.8,0.4,1.4,0.9,2.1,1.5
				c0.6,0.7,1.1,1.5,1.5,2.5c0.3,1,0.5,2,0.5,3v6.9c0,0.7,0.2,1.1,0.5,1.1c0.1,0,0.2-0.1,0.3-0.2c0.1-0.1,0.2-0.3,0.4-0.6
				c0.4-0.8,0.8-1.1,1.2-1.1c0.3,0,0.5,0.2,0.8,0.6c0.3,0.4,0.4,0.8,0.4,1.2c0,0.7-0.2,1.5-0.7,2.5s-1,1.9-1.7,2.7
				c-0.6,0.7-1.3,1.3-2.1,1.6c-0.8,0.4-1.7,0.6-2.7,0.6c-2,0-3.6-0.8-4.8-2.5c-1.1-1.7-1.7-4-1.7-7v-5.6c0-1.2,0-2,0-2.2
				c-0.1-0.9-0.3-1.7-0.6-2.3c-0.4-0.8-1.1-1.2-1.9-1.4v-3.6c0.8-0.2,1.4-0.5,1.8-0.9c0.3-0.4,0.5-0.9,0.6-1.4s0.2-1.3,0.2-2.3v-8.9
				c0-1.4-0.2-2.5-0.6-3.1c-0.4-0.7-1.1-1.2-2-1.6V16h0.6c1.7,0,3.2,0.1,4.4,0.3c1.8,0.2,3.4,1.1,4.8,2.5c2,2.1,3,5,3,8.9
				c0,3.1-0.7,5.7-2,7.7c-0.6,0.8-1.2,1.5-2,2.1C50.9,37.9,49.8,38.5,48.2,39.2z"/>
			<path fill="none" stroke="#AFD7CB" stroke-width="2" stroke-miterlimit="10" d="M73.7,18.6c-0.8,0.4-1.3,0.9-1.7,1.6
				c-0.3,0.7-0.5,1.7-0.5,3v29.9c0,2,0.2,3.3,0.6,4.1c0.3,0.7,0.8,1.1,1.6,1.4v3.9c-3.4-0.4-6.3-2.3-8.6-5.6
				c-3-4.3-4.5-10.3-4.5-18.1c0-3.9,0.4-7.4,1.2-10.5s2-5.8,3.5-8c1.2-1.7,2.5-2.9,3.8-3.8c1.4-0.9,2.9-1.4,4.5-1.5L73.7,18.6
				L73.7,18.6z M75.6,18.6V15c1.7,0.1,3.2,0.6,4.6,1.5s2.7,2.1,3.8,3.8c3.1,4.4,4.7,10.6,4.7,18.5c0,7.7-1.5,13.8-4.5,18.1
				c-2.3,3.3-5.2,5.2-8.6,5.6v-3.7c0.4-0.1,0.7-0.3,0.9-0.5s0.4-0.5,0.6-0.9c0.4-0.9,0.6-2.3,0.6-4.1v-30c0-1.2-0.1-2.1-0.4-2.8
				c-0.2-0.5-0.4-0.8-0.7-1.1C76.4,19.1,76.1,18.9,75.6,18.6z"/>
			<path fill="none" stroke="#AFD7CB" stroke-width="2" stroke-miterlimit="10" d="M94.9,27.7l2.4,5.9v17.9c0,1.6,0.2,2.8,0.5,3.8
				s0.9,1.8,1.7,2.5l0.7,0.6c0.4,0.3,0.6,0.8,0.6,1.5c0,0.5-0.1,0.9-0.4,1.3c-0.2,0.3-0.8,0.4-1.5,0.4h-5.3c-1.4,0-2.1-0.6-2.1-1.7
				c0-0.4,0.1-0.7,0.2-1c0.1-0.2,0.5-0.6,1-1c1.5-1.2,2.2-3.3,2.2-6.5L94.9,27.7L94.9,27.7z M104.6,15.9l12.3,30.9v14.7h-6.3
				L94.9,22.4c-0.3-0.8-0.6-1.4-0.8-1.8c-0.2-0.3-0.5-0.6-0.8-0.7l-0.9-0.4c-0.2-0.1-0.4-0.3-0.6-0.6c-0.1-0.3-0.2-0.6-0.2-1
				s0.1-0.7,0.2-1.1c0.1-0.3,0.3-0.6,0.6-0.7c0.3-0.2,1-0.2,2.1-0.2H104.6z M116.8,41.5l-2.4-6v-9.3c0-1.9-0.2-3.3-0.6-4.3
				s-1-1.8-2-2.6c-0.3-0.2-0.5-0.5-0.7-0.7c-0.1-0.3-0.2-0.6-0.2-1c0-0.6,0.1-1,0.4-1.3c0.3-0.3,0.7-0.4,1.3-0.4h5.8
				c0.8,0,1.3,0.2,1.5,0.5c0.3,0.4,0.4,0.8,0.4,1.3s-0.1,0.8-0.2,1.1c-0.1,0.2-0.5,0.6-1,1c-0.8,0.6-1.4,1.5-1.8,2.8
				c-0.3,0.9-0.4,2.2-0.4,3.7v15.2H116.8z"/>
			<path fill="none" stroke="#AFD7CB" stroke-width="2" stroke-miterlimit="10" d="M122.3,15.9h6.1v4c-0.7,0.6-1.3,1.4-1.7,2.3
				c-0.7,1.5-1.1,3.3-1.3,5.4l-0.2,2c-0.1,0.6-0.2,1.2-0.5,1.5c-0.3,0.4-0.6,0.6-1,0.6s-0.7-0.2-1-0.6s-0.4-0.9-0.4-1.6V15.9z
				 M140.5,15.9v39.3c0,0.9,0.1,1.5,0.3,1.9c0.1,0.2,0.2,0.4,0.3,0.4c0.1,0.1,0.5,0.2,1.1,0.4c0.7,0.2,1.1,0.9,1.1,1.8
				c0,0.6-0.2,1-0.6,1.4c-0.3,0.3-0.8,0.4-1.5,0.4h-0.8h-10.3h-0.8c-0.7,0-1.2-0.2-1.5-0.5c-0.3-0.3-0.5-0.8-0.5-1.4
				c0-1,0.4-1.6,1.1-1.8c0.6-0.2,1-0.4,1.1-0.4s0.2-0.2,0.3-0.4c0.2-0.4,0.3-1,0.3-1.9V15.9H140.5z M148.4,15.9v13.7
				c0,0.6-0.1,1.2-0.4,1.6c-0.3,0.4-0.6,0.6-1,0.6s-0.7-0.2-1-0.6s-0.4-0.9-0.5-1.5l-0.2-2c-0.2-2.1-0.7-3.9-1.3-5.4
				c-0.4-0.9-1-1.7-1.7-2.3v-4h6.1V15.9z"/>
			<path fill="none" stroke="#AFD7CB" stroke-width="2" stroke-miterlimit="10" d="M163.9,15.9v45.6h-10.3H153c-0.6,0-1-0.2-1.3-0.5
				s-0.5-0.7-0.5-1.3c0-0.9,0.3-1.5,0.9-1.8c0.5-0.2,0.8-0.4,0.9-0.5c0.1-0.1,0.2-0.2,0.3-0.4c0.2-0.4,0.3-0.9,0.3-1.7V22
				c0-0.8-0.1-1.3-0.3-1.7c-0.1-0.2-0.2-0.3-0.3-0.4s-0.4-0.2-0.9-0.5c-0.6-0.3-0.9-0.9-0.9-1.8c0-0.6,0.2-1,0.5-1.3
				c0.3-0.3,0.7-0.5,1.3-0.5h0.6h10.3V15.9z M165.8,40.3v-3.9c0.9-0.6,1.6-1.3,2-2s0.7-1.7,0.9-2.9c0.1-0.8,0.3-1.4,0.5-1.8
				c0.2-0.3,0.5-0.5,0.9-0.5c0.5,0,0.8,0.3,1,0.8c0.1,0.3,0.2,0.9,0.2,2v12.7c0,1-0.1,1.8-0.2,2.2c-0.2,0.4-0.5,0.6-0.9,0.6
				s-0.6-0.2-0.8-0.5s-0.4-0.8-0.5-1.6c-0.3-1.5-0.6-2.7-1.1-3.5S166.6,40.5,165.8,40.3z M165.9,15.9h9.3v11.8
				c0,0.7-0.1,1.2-0.3,1.5s-0.5,0.5-0.9,0.5c-0.3,0-0.6-0.1-0.7-0.3c-0.2-0.2-0.3-0.6-0.4-1.2c-0.6-2.6-1.4-4.6-2.6-5.9
				c-1.1-1.4-2.6-2.2-4.4-2.4L165.9,15.9L165.9,15.9z M165.9,61.5v-3.6c1-0.2,1.8-0.5,2.5-0.9s1.3-1,2-1.8s1.2-1.7,1.6-2.6
				c0.4-0.9,0.8-2,1.1-3.5c0.2-0.7,0.3-1.2,0.5-1.5s0.4-0.4,0.8-0.4c0.4,0,0.7,0.2,0.9,0.6c0.2,0.4,0.3,1,0.3,1.9v11.8H165.9z"/>
			<path fill="none" stroke="#AFD7CB" stroke-width="2" stroke-miterlimit="10" d="M182.4,27.7l2.4,5.9v17.9c0,1.6,0.2,2.8,0.5,3.8
				s0.9,1.8,1.7,2.5l0.7,0.6c0.4,0.3,0.6,0.8,0.6,1.5c0,0.5-0.1,0.9-0.4,1.3c-0.2,0.3-0.8,0.4-1.5,0.4h-5.3c-1.4,0-2.1-0.6-2.1-1.7
				c0-0.4,0.1-0.7,0.2-1c0.1-0.2,0.5-0.6,1-1c1.5-1.2,2.2-3.3,2.2-6.5L182.4,27.7L182.4,27.7z M192.1,15.9l12.3,30.9v14.7h-6.3
				l-15.7-39.1c-0.3-0.8-0.6-1.4-0.8-1.8c-0.2-0.3-0.5-0.6-0.8-0.7l-0.9-0.5c-0.2-0.1-0.4-0.3-0.6-0.6c-0.1-0.3-0.2-0.6-0.2-1
				s0.1-0.7,0.2-1.1c0.1-0.3,0.3-0.6,0.6-0.7c0.3-0.2,1-0.2,2.1-0.2L192.1,15.9L192.1,15.9z M204.3,41.5l-2.4-6v-9.3
				c0-1.9-0.2-3.3-0.6-4.3c-0.4-1-1-1.8-2-2.6c-0.3-0.2-0.5-0.5-0.7-0.7c-0.1-0.3-0.2-0.6-0.2-1c0-0.6,0.1-1,0.4-1.3
				c0.3-0.3,0.7-0.4,1.3-0.4h5.8c0.8,0,1.3,0.2,1.5,0.5c0.3,0.4,0.4,0.8,0.4,1.3s-0.1,0.8-0.2,1.1c-0.1,0.2-0.5,0.6-1,1
				c-0.8,0.6-1.4,1.5-1.8,2.8c-0.3,0.9-0.4,2.2-0.4,3.7v15.2H204.3z"/>
			<path fill="none" stroke="#AFD7CB" stroke-width="2" stroke-miterlimit="10" d="M223.3,15.9v45.6H213h-0.6c-0.6,0-1-0.2-1.3-0.5
				s-0.5-0.7-0.5-1.3c0-0.9,0.3-1.5,0.9-1.8c0.5-0.2,0.8-0.4,0.9-0.5c0.1-0.1,0.2-0.2,0.3-0.4c0.2-0.4,0.3-0.9,0.3-1.7V22
				c0-0.8-0.1-1.3-0.3-1.7c-0.1-0.2-0.2-0.3-0.3-0.4s-0.4-0.2-0.9-0.5c-0.6-0.3-0.9-0.9-0.9-1.8c0-0.6,0.2-1,0.5-1.3
				c0.3-0.3,0.7-0.5,1.3-0.5h0.6h10.3V15.9z M228,52V25.6c0-1.6-0.2-2.9-0.5-3.9c-0.2-0.6-0.4-1.1-0.7-1.4s-0.8-0.5-1.4-0.7v-3.7
				c0.8,0,1.5,0,2.1,0.1c2,0.3,3.8,1.5,5.7,3.6c1.8,2,3.2,4.7,4,7.9c0.9,3.3,1.4,7,1.4,11c0,4.5-0.6,8.6-1.7,12.1
				c-1.2,3.5-2.8,6.3-5,8.3c-1,1-2,1.6-2.9,2s-2.1,0.5-3.5,0.5v-3.6c0.6-0.2,1.1-0.5,1.3-0.7c0.3-0.2,0.5-0.5,0.7-0.9
				c0.2-0.5,0.4-1,0.5-1.7C227.9,54.1,228,53.2,228,52z"/>
		</g>
	</g>
</g>
<g>
</g>
<g>
</g>
<g>
</g>
<g>
</g>
<g>
</g>
<g>
</g>
<g>
</g>
<g>
</g>
<g>
</g>
<g>
</g>
<g>
</g>
<g>
</g>
<g>
</g>
<g>
</g>
<g>
</g>
</svg>
